<?xml version="1.0" encoding="UTF-8"?> <svg xmlns="http://www.w3.org/2000/svg" width="69.613" height="40" viewBox="0 0 69.613 40"><defs><style>.a{fill:#f42c37;}</style></defs><g transform="translate(-5.009 -24.149)"><g transform="translate(5.009 24.149)"><path class="a" d="M76.464,52.063,74.559,41.837A10.444,10.444,0,0,0,64.3,33.349H54.944a10.449,10.449,0,0,0-10.343-9.2H20.71a8.031,8.031,0,0,0-6.933,3.912,1.123,1.123,0,0,0,1.922,1.16,5.8,5.8,0,0,1,5.011-2.826H44.6a8.189,8.189,0,0,1,8.17,8.078v22.2H33.911a6.34,6.34,0,0,0-12.483,0h-.719A5.843,5.843,0,0,1,15.862,54.1,1.123,1.123,0,0,0,14,55.361a8.084,8.084,0,0,0,6.708,3.559h.713a6.347,6.347,0,0,0,12.5,0H52.857a6.347,6.347,0,0,0,12.5,0h5.454a5.752,5.752,0,0,0,5.658-6.858ZM27.648,61.9a4.1,4.1,0,0,1,0-8.209,4.1,4.1,0,1,1,0,8.209Zm31.434,0A4.085,4.085,0,0,1,55,57.911a1.111,1.111,0,0,0,.012-.114v-.3a4.1,4.1,0,1,1,4.066,4.4Zm14.441-6.5a3.508,3.508,0,0,1-2.715,1.273h-5.46a6.38,6.38,0,0,0-6.264-5.227,6.265,6.265,0,0,0-4.065,1.5V35.594H64.3a8.2,8.2,0,0,1,8.05,6.656l1.906,10.231A3.523,3.523,0,0,1,73.523,55.4Z" transform="translate(-6.957 -24.149)"></path><path class="a" d="M18.105,40.6a1.123,1.123,0,0,0-1.123-1.123H6.132a1.123,1.123,0,0,0,0,2.245H16.983A1.123,1.123,0,0,0,18.105,40.6Z" transform="translate(-5.009 -27.619)"></path><path class="a" d="M18.941,51.984a1.123,1.123,0,0,0-1.123-1.123h-8a1.123,1.123,0,1,0,0,2.245h8A1.123,1.123,0,0,0,18.941,51.984Z" transform="translate(-5.845 -30.196)"></path></g></g></svg> 