<?xml version="1.0" encoding="UTF-8"?> <svg xmlns="http://www.w3.org/2000/svg" width="44.03" height="40.804" viewBox="0 0 44.03 40.804"><defs><style>.a,.b{fill:#f42c37;stroke:#f42c37;}.a{stroke-width:0.8px;}.b{stroke-linecap:round;stroke-width:2.6px;}</style></defs><g transform="translate(-4.6 -8.021)"><path class="a" d="M10.951,43.533a.584.584,0,0,1-.576-.576V35.368a.576.576,0,1,1,1.153,0v7.541A.567.567,0,0,1,10.951,43.533ZM44.34,45.015V40.722a.584.584,0,0,0-.576-.576.62.62,0,0,0-.576.576v4.293a2.153,2.153,0,0,1-2.162,2.162H8.362A2.153,2.153,0,0,1,6.2,45.015V20.421A2.153,2.153,0,0,1,8.362,18.26H41.025a2.153,2.153,0,0,1,2.162,2.162v4a.584.584,0,0,0,.576.576.62.62,0,0,0,.576-.576v-4a3.372,3.372,0,0,0-3.362-3.362H8.362A3.372,3.372,0,0,0,5,20.421V45.063a3.372,3.372,0,0,0,3.362,3.362H41.025A3.4,3.4,0,0,0,44.34,45.015ZM48.23,33.342v-1.3a4.92,4.92,0,0,0-4.9-4.9H34.06a4.92,4.92,0,0,0-4.9,4.9v1.3a4.92,4.92,0,0,0,4.9,4.9h9.27A4.92,4.92,0,0,0,48.23,33.342Zm-4.9-5a3.731,3.731,0,0,1,3.7,3.7v1.3a3.731,3.731,0,0,1-3.7,3.7H34.06a3.731,3.731,0,0,1-3.7-3.7v-1.3a3.731,3.731,0,0,1,3.7-3.7h9.27ZM40.017,14.994a.618.618,0,0,0,.288-.817L37.759,8.749a.508.508,0,0,0-.336-.288.819.819,0,0,0-.48,0L25.751,13.745a.612.612,0,0,0,.528,1.1l10.615-5,2.306,4.9a.652.652,0,0,0,.528.336C39.872,15.042,39.968,15.042,40.017,14.994Z" transform="translate(0 0)"></path><path class="b" d="M14.5-7.59H12.234" transform="translate(29.267 40.122)"></path></g></svg> 