<?xml version="1.0" encoding="UTF-8"?> <svg xmlns="http://www.w3.org/2000/svg" width="48.579" height="49.552" viewBox="0 0 48.579 49.552"><defs><style>.a,.b{fill:#f42c37;}.a{stroke:#fff;stroke-width:0.35px;}.b,.c{stroke:#f42c37;}.b{stroke-width:0.3px;}.c,.e{fill:none;}.c{stroke-linecap:round;stroke-width:2.1px;stroke-dasharray:55 10;}.d{stroke:none;}</style></defs><g transform="translate(-4.068 -3.507)"><g transform="translate(4.254 3.682)"><path class="a" d="M52.96,31.59l-.876-1.208a1.631,1.631,0,0,1-.009-1.912l.855-1.219a4.107,4.107,0,0,0-1.409-5.99l-1.309-.7a1.636,1.636,0,0,1-.845-1.712l.251-1.469a4.1,4.1,0,0,0-3.865-4.782l-1.491-.06a1.627,1.627,0,0,1-1.5-1.179l-.432-1.42A4.114,4.114,0,0,0,36.76,7.306l-1.369.583a1.654,1.654,0,0,1-1.862-.412l-1-1.108a4.1,4.1,0,0,0-6.151.04l-.967,1.128a1.664,1.664,0,0,1-1.862.443l-1.38-.563a4.177,4.177,0,0,0-1.56-.312,4.108,4.108,0,0,0-3.957,3.02l-.393,1.439a1.635,1.635,0,0,1-1.49,1.2l-1.48.091a4.1,4.1,0,0,0-3.8,4.833l.272,1.46a1.636,1.636,0,0,1-.816,1.731l-1.3.725a4.106,4.106,0,0,0-1.319,6.01l.876,1.2a1.631,1.631,0,0,1,.009,1.912l-.856,1.219a4.108,4.108,0,0,0,1.409,5.99l1.309.7a1.635,1.635,0,0,1,.845,1.712l-.251,1.469A4.1,4.1,0,0,0,13.543,46.6l1.491.06a1.626,1.626,0,0,1,1.5,1.178l.412,1.43A4.113,4.113,0,0,0,22.514,51.9l1.368-.584a1.657,1.657,0,0,1,1.863.413l1,1.106a4.1,4.1,0,0,0,6.154-.04l.975-1.128a1.666,1.666,0,0,1,1.863-.443l1.379.564a4.2,4.2,0,0,0,1.561.312,4.105,4.105,0,0,0,3.956-3.02l.393-1.44a1.64,1.64,0,0,1,1.491-1.2l1.49-.09a4.1,4.1,0,0,0,3.8-4.832l-.272-1.46a1.636,1.636,0,0,1,.816-1.731l1.3-.726a4.1,4.1,0,0,0,1.319-6.01Zm-1.711,2.768a1.627,1.627,0,0,1-.8,1.079l-1.3.725A4.1,4.1,0,0,0,47.1,40.489l.272,1.46a1.636,1.636,0,0,1-1.52,1.933l-1.48.091a4.1,4.1,0,0,0-3.725,3.011l-.393,1.43a1.638,1.638,0,0,1-1.58,1.208,1.682,1.682,0,0,1-.625-.12l-1.38-.564a4.182,4.182,0,0,0-1.56-.313,4.121,4.121,0,0,0-3.1,1.409l-.977,1.119a1.618,1.618,0,0,1-1.239.563,1.6,1.6,0,0,1-1.217-.543l-1-1.108A4.119,4.119,0,0,0,24.52,48.7a4.054,4.054,0,0,0-1.621.332l-1.369.583a1.6,1.6,0,0,1-.643.132,1.642,1.642,0,0,1-1.571-1.179l-.412-1.43a4.115,4.115,0,0,0-3.767-2.96l-1.49-.06a1.588,1.588,0,0,1-1.2-.6,1.605,1.605,0,0,1-.342-1.3l.251-1.469a4.094,4.094,0,0,0-2.114-4.3l-1.308-.7a1.611,1.611,0,0,1-.826-1.068,1.579,1.579,0,0,1,.262-1.319l.856-1.219a4.094,4.094,0,0,0-.04-4.791l-.876-1.2a1.584,1.584,0,0,1-.272-1.319,1.627,1.627,0,0,1,.806-1.077l1.3-.725a4.1,4.1,0,0,0,2.043-4.33l-.262-1.449a1.609,1.609,0,0,1,.321-1.309,1.625,1.625,0,0,1,1.2-.623l1.48-.091A4.108,4.108,0,0,0,18.65,12.21l.393-1.439a1.638,1.638,0,0,1,1.58-1.209,1.7,1.7,0,0,1,.625.121l1.38.563a4.177,4.177,0,0,0,1.56.312,4.12,4.12,0,0,0,3.1-1.409l.977-1.117a1.637,1.637,0,0,1,2.456-.02l1,1.106a4.121,4.121,0,0,0,3.061,1.369,4.066,4.066,0,0,0,1.621-.332l1.369-.583a1.594,1.594,0,0,1,.643-.131,1.64,1.64,0,0,1,1.571,1.177l.412,1.431a4.115,4.115,0,0,0,3.767,2.959l1.49.061a1.623,1.623,0,0,1,1.208.6,1.6,1.6,0,0,1,.343,1.3l-.252,1.471a4.1,4.1,0,0,0,2.114,4.3l1.309.7a1.638,1.638,0,0,1,.574,2.385l-.855,1.219a4.1,4.1,0,0,0,.04,4.793l.876,1.2A1.773,1.773,0,0,1,51.249,34.357Z" transform="translate(-5.545 -5)"></path><path class="b" d="M48.05,42.37l-5.14,5.11L41.241,45.8a1.176,1.176,0,0,0-1.668,1.659l2.5,2.513a1.17,1.17,0,0,0,1.659,0l5.974-5.936A1.176,1.176,0,1,0,48.05,42.37Z" transform="translate(-20.548 -21.581)"></path></g><g class="c" transform="translate(28.357 47.837) rotate(-135)"><circle class="d" cx="13.835" cy="13.835" r="13.835"></circle><circle class="e" cx="13.835" cy="13.835" r="12.785"></circle></g></g></svg> 