<?xml version="1.0" encoding="UTF-8"?> <svg xmlns="http://www.w3.org/2000/svg" width="49.231" height="40" viewBox="0 0 49.231 40"><defs><style>.a{fill:#f42c37;}.b{fill:none;stroke:#f42c37;stroke-linecap:round;stroke-width:2.2px;}</style></defs><g transform="translate(-554 -5045.521)"><path class="a" d="M48.077-22.546a4.9,4.9,0,0,0,1.154-3.221,4.9,4.9,0,0,0-1.154-3.221A5.122,5.122,0,0,0,45.1-30.767v-.1a4.655,4.655,0,0,0-3.077-4.712v-2.5a16.77,16.77,0,0,0-5.1-12.308,16.77,16.77,0,0,0-12.308-5.1,16.77,16.77,0,0,0-12.308,5.1,16.77,16.77,0,0,0-5.1,12.308v2.212a3.691,3.691,0,0,0-3.077,3.942v1.154a5.122,5.122,0,0,0-2.981,1.779A4.9,4.9,0,0,0,0-25.767a4.9,4.9,0,0,0,1.154,3.221,5.122,5.122,0,0,0,2.981,1.779v1.154a3.99,3.99,0,0,0,1.2,2.933,3.879,3.879,0,0,0,2.837,1.2h2.115a3.879,3.879,0,0,0,2.837-1.2,3.99,3.99,0,0,0,1.2-2.933V-31.921a3.99,3.99,0,0,0-1.2-2.933,3.879,3.879,0,0,0-2.837-1.2H9.231v-2.019A14.814,14.814,0,0,1,13.75-48.94a14.814,14.814,0,0,1,10.865-4.519A14.814,14.814,0,0,1,35.481-48.94,14.814,14.814,0,0,1,40-38.075v2.019a4.836,4.836,0,0,0-3.606,1.538,5.072,5.072,0,0,0-1.49,3.654v10.192a5.072,5.072,0,0,0,1.49,3.654A4.836,4.836,0,0,0,40-15.479a4.836,4.836,0,0,0,3.606-1.538,5.072,5.072,0,0,0,1.49-3.654v-.1A5.122,5.122,0,0,0,48.077-22.546ZM4.135-22.882a2.773,2.773,0,0,1-2.115-2.885,2.773,2.773,0,0,1,2.115-2.885Zm8.173-9.038v12.308a1.881,1.881,0,0,1-.625,1.442,2.007,2.007,0,0,1-1.394.577H8.173a2.007,2.007,0,0,1-1.394-.577,1.881,1.881,0,0,1-.625-1.442V-31.921a1.881,1.881,0,0,1,.625-1.442,2.007,2.007,0,0,1,1.394-.577h2.115a2.007,2.007,0,0,1,1.394.577A1.881,1.881,0,0,1,12.308-31.921Zm30.769,11.25a3.04,3.04,0,0,1-.865,2.163A2.913,2.913,0,0,1,40-17.594a2.913,2.913,0,0,1-2.212-.913,3.04,3.04,0,0,1-.865-2.163V-30.863a3.04,3.04,0,0,1,.865-2.163A2.913,2.913,0,0,1,40-33.94a2.913,2.913,0,0,1,2.212.913,3.04,3.04,0,0,1,.865,2.163ZM45.1-22.882v-5.769a2.773,2.773,0,0,1,2.115,2.885A2.773,2.773,0,0,1,45.1-22.882Z" transform="translate(554 5101)"></path><path class="b" d="M12.482,1.811A13.234,13.234,0,0,0,0,1.375" transform="matrix(0.998, -0.07, 0.07, 0.998, 572.188, 5051.251)"></path></g></svg> 